PathFileType	4	(X/Y/Z)
DataRate	CameraRate	NumFrames	NumMarkers	Units	OrigDataRate	OrigDataStartFrame	OrigNumFrames	
  120.0	  120.0	    4	     64	     mm	  120.0	      90	    239
Frame#	Time	LASI			RASI			LPSI			RPSI			RTH1			RTH2			RTH3			RLFC			RMFC			LTH1			LTH2			LTH3			LLFC			LMFC			RTB1			RTB2			RTB3			RLMAL			RMMAL			LTB1			LTB2			LTB3			LMMAL			LLMAL			RCAL			RTOE			RMT5			LCAL			LTOE			LMT5			LACR			RACR			CLAV			C7			LASH			LPSH			RASH			RPSH			RUA1			RUA2			RUA3			RLEL			RMEL			LUA1			LUA2			LUA3			LLEL			LMEL			RFAsuperior			RFAradius			RFAulna			LFAsuperior			LFAradius			LFAulna			RHJC			LHJC			RKJC			LKJC			RAJC			LAJC			RSJC			LSJC			REJC			LEJC			
		X1	Y1	Z1	X2	Y2	Z2	X3	Y3	Z3	X4	Y4	Z4	X5	Y5	Z5	X6	Y6	Z6	X7	Y7	Z7	X8	Y8	Z8	X9	Y9	Z9	X10	Y10	Z10	X11	Y11	Z11	X12	Y12	Z12	X13	Y13	Z13	X14	Y14	Z14	X15	Y15	Z15	X16	Y16	Z16	X17	Y17	Z17	X18	Y18	Z18	X19	Y19	Z19	X20	Y20	Z20	X21	Y21	Z21	X22	Y22	Z22	X23	Y23	Z23	X24	Y24	Z24	X25	Y25	Z25	X26	Y26	Z26	X27	Y27	Z27	X28	Y28	Z28	X29	Y29	Z29	X30	Y30	Z30	X31	Y31	Z31	X32	Y32	Z32	X33	Y33	Z33	X34	Y34	Z34	X35	Y35	Z35	X36	Y36	Z36	X37	Y37	Z37	X38	Y38	Z38	X39	Y39	Z39	X40	Y40	Z40	X41	Y41	Z41	X42	Y42	Z42	X43	Y43	Z43	X44	Y44	Z44	X45	Y45	Z45	X46	Y46	Z46	X47	Y47	Z47	X48	Y48	Z48	X49	Y49	Z49	X50	Y50	Z50	X51	Y51	Z51	X52	Y52	Z52	X53	Y53	Z53	X54	Y54	Z54	X55	Y55	Z55	X56	Y56	Z56	X57	Y57	Z57	X58	Y58	Z58	X59	Y59	Z59	X60	Y60	Z60	X61	Y61	Z61	X62	Y62	Z62	X63	Y63	Z63	X64	Y64	Z64	

90	0.74167	610.19965	1099.31250	-625.14545	754.49518	1106.70410	-404.76047	509.68362	1134.24268	-450.02704	552.45508	1132.29688	-377.74289	722.41461	941.38251	-308.07404	748.03980	830.33856	-328.21286	661.60498	726.19257	-289.54129	682.82184	551.07227	-292.20050	584.84344	531.94952	-367.27908	502.76916	895.27985	-629.39600	534.24634	766.70837	-642.73956	462.41855	665.43060	-585.64490	466.70749	563.84985	-593.92798	516.02283	549.92938	-480.32181	665.75885	416.86084	-355.18509	690.67767	355.59567	-282.87448	667.93109	250.35429	-346.87122	662.41357	124.60053	-286.69369	625.53394	130.84865	-358.70926	512.43524	428.60416	-573.91815	457.42026	347.94022	-609.48145	508.18842	228.98143	-575.11877	502.89774	127.41071	-529.33466	449.13309	124.75317	-589.54822	581.99493	99.36037	-289.14798	742.47522	57.66450	-437.46603	773.73932	54.42573	-324.58047	422.62564	97.33942	-519.01263	630.12573	63.45632	-615.26739	533.88306	53.29754	-680.30414	493.45841	1603.83228	-568.86774	670.72821	1603.71240	-322.46692	670.07520	1550.94800	-471.28625	545.75317	1601.11902	-412.06906	554.28186	1560.61096	-593.62854	426.40460	1541.64807	-546.41656	716.01099	1560.33130	-364.76733	622.99957	1552.60022	-273.41229	716.47516	1570.88171	-235.83092	794.38367	1539.70557	-219.19110	762.92767	1508.50403	-156.76018	880.64368	1498.74744	-66.42873	879.62714	1425.98132	-101.76466	427.46893	1575.29565	-630.37793	434.12878	1557.63733	-692.56311	374.57278	1485.47009	-669.12793	307.53436	1490.32581	-835.35968	327.10757	1412.76184	-826.30249	959.68121	1542.98645	-128.10506	1090.09070	1541.30530	-253.91737	1120.21411	1563.70960	-192.78030	387.42996	1523.18579	-884.02332	552.55536	1514.55505	-966.59308	511.55017	1524.57739	-1026.07275	670.98964	1032.18250	-396.63261	574.59774	1030.22244	-551.20390	633.83264	541.51090	-329.73979	491.36516	556.88962	-537.12489	643.97375	127.72459	-322.70148	476.01541	126.08194	-559.44144	669.50528	1556.46576	-319.08981	490.34323	1551.12952	-570.02255	880.13541	1462.36438	-84.09669	317.32097	1451.54382	-830.83109	
91	0.75000	610.23792	1099.28076	-625.12921	754.54889	1106.67761	-404.76846	509.78455	1134.25452	-449.99246	552.57721	1132.28833	-377.81155	722.47351	941.47156	-308.01840	748.09271	830.33258	-328.25082	661.62201	726.20508	-289.56821	682.86133	551.07404	-292.21332	584.86926	531.94885	-367.27939	502.81421	895.26410	-629.39179	534.31592	766.73828	-642.76196	462.46240	665.45288	-585.64301	466.73254	563.85077	-593.95239	516.03680	549.94721	-480.32843	665.77612	416.85901	-355.16098	690.68939	355.60388	-282.83667	667.95306	250.30353	-346.81891	662.44287	124.61304	-286.69653	625.47247	130.86937	-358.67142	512.44983	428.60184	-573.92859	457.44147	347.92319	-609.46686	508.20148	228.98042	-575.12775	502.89185	127.37758	-529.36487	449.13577	124.75874	-589.55884	582.01587	99.33485	-289.15231	742.47266	57.67745	-437.51251	773.73712	54.43572	-324.59183	422.63187	97.35178	-519.01080	630.12384	63.45366	-615.28876	533.81592	53.29670	-680.29956	493.59650	1603.86304	-568.86389	670.81714	1603.72827	-322.51367	670.11005	1550.96728	-471.28961	545.80536	1601.09839	-412.08807	554.30573	1560.63342	-593.57544	426.50400	1541.62659	-546.45233	716.04492	1560.30969	-364.79617	623.05176	1552.61365	-273.42035	716.54755	1570.89001	-235.83702	794.42377	1539.67297	-219.21246	763.00952	1508.46790	-156.79338	880.75140	1498.76953	-66.39253	879.69556	1425.95190	-101.82112	427.50958	1575.29334	-630.39471	434.15323	1557.62170	-692.58356	374.59662	1485.47363	-669.10864	307.55179	1490.23914	-835.34985	327.12634	1412.71741	-826.32117	959.74286	1542.98438	-128.13211	1090.12268	1541.32617	-253.96658	1120.26148	1563.70740	-192.81055	387.47177	1523.14111	-884.04785	552.66809	1514.52002	-966.73340	511.59061	1524.53967	-1026.09485	671.05218	1032.16846	-396.62852	574.64353	1030.20405	-551.18927	633.86530	541.51144	-329.74635	491.38467	556.89899	-537.14041	643.95767	127.74120	-322.68398	476.01381	126.06816	-559.46185	669.54834	1556.46167	-319.10826	490.40486	1551.13001	-570.01389	880.22348	1462.36072	-84.10682	317.33907	1451.47827	-830.83551	
92	0.75833	610.28308	1099.31116	-625.18475	754.60254	1106.70117	-404.78531	509.80936	1134.24109	-450.03146	552.67157	1132.29126	-377.80200	722.52295	941.42078	-308.06171	748.12988	830.33301	-328.26761	661.66669	726.19690	-289.56107	682.86084	551.07330	-292.21506	584.91009	531.96570	-367.28708	502.85226	895.29498	-629.39252	534.33948	766.71759	-642.75330	462.45508	665.44367	-585.63623	466.76703	563.85254	-593.93463	516.03375	549.96228	-480.31564	665.78210	416.85977	-355.19125	690.69165	355.59506	-282.85989	667.49414	250.03268	-345.57849	662.43280	124.59297	-286.67557	625.51392	130.87950	-358.68860	512.46881	428.60425	-573.91602	457.46555	347.94373	-609.47369	508.20877	228.98377	-575.10602	502.89832	127.40988	-529.33496	449.14703	124.77230	-589.56989	582.00427	99.35375	-289.15561	742.45538	57.64406	-437.46936	773.74738	54.41978	-324.60059	422.62112	97.33491	-519.03162	630.11774	63.45609	-615.26477	533.86938	53.30058	-680.29742	493.52783	1603.81848	-568.89215	670.84326	1603.71790	-322.54010	670.15778	1550.95447	-471.31027	545.83978	1601.09192	-412.12094	554.35321	1560.61890	-593.59503	426.46973	1541.58069	-546.49310	716.11816	1560.29126	-364.82724	623.10199	1552.63879	-273.44800	716.60767	1570.88757	-235.86826	794.48596	1539.68225	-219.23920	763.31445	1508.05017	-157.16444	880.72022	1498.73071	-66.48962	879.73584	1425.93970	-101.83700	427.55478	1575.26062	-630.40320	434.21298	1557.60120	-692.59992	374.68564	1485.42407	-669.15161	307.54684	1490.21057	-835.37958	327.21176	1412.64490	-826.31921	959.77899	1542.97925	-128.14633	1090.15967	1541.31873	-253.98280	1120.29431	1563.72522	-192.81461	387.49246	1523.08106	-884.07654	552.65192	1514.46924	-966.73029	511.62643	1524.47119	-1026.11401	671.12431	1032.17716	-396.67412	574.69760	1030.22399	-551.22323	633.88547	541.51950	-329.75107	491.40039	556.90741	-537.12514	643.97336	127.73624	-322.68208	476.02267	126.09109	-559.45242	669.61008	1556.46503	-319.13762	490.41147	1551.09979	-570.04407	880.22803	1462.33520	-84.16331	317.37930	1451.42773	-830.84940	
93	0.76667	610.33649	1099.30066	-625.09045	754.60693	1106.61523	-404.92294	509.86212	1134.25342	-450.04697	552.68677	1132.27808	-377.85791	722.57581	941.39154	-308.10037	748.18335	830.32764	-328.30392	661.68518	726.21503	-289.56360	682.92767	551.10931	-292.21518	584.91248	531.96277	-367.29935	502.90952	895.25787	-629.39008	534.36639	766.71692	-642.75952	462.51321	665.44879	-585.64154	466.79990	563.84186	-593.97180	516.04352	549.96387	-480.29205	665.82709	416.86096	-355.18103	690.70203	355.59934	-282.85382	667.45770	249.94377	-345.44016	662.42236	124.61753	-286.68735	625.50848	130.84038	-358.69388	512.48938	428.59103	-573.91827	457.44653	347.94510	-609.46307	508.25412	229.03058	-575.09290	502.89813	127.41047	-529.33447	449.11749	124.76165	-589.55072	582.01624	99.33439	-289.15283	742.45862	57.68435	-437.46597	773.74487	54.43578	-324.61560	422.61325	97.33269	-519.04199	630.13464	63.45457	-615.26563	533.85303	53.32096	-680.28992	493.57962	1603.80139	-568.91302	670.89862	1603.72485	-322.55530	670.20734	1550.93079	-471.35992	545.86554	1601.10828	-412.13763	554.38220	1560.60169	-593.66089	426.52539	1541.61267	-546.55341	716.18384	1560.28809	-364.84497	623.12915	1552.62134	-273.46918	716.65448	1570.88831	-235.92694	794.53687	1539.66455	-219.28313	763.36395	1507.99853	-157.21362	880.78876	1498.68762	-66.55600	879.78552	1425.92920	-101.85339	427.61713	1575.26196	-630.44574	434.25925	1557.57715	-692.63965	374.74490	1485.35339	-669.18567	307.62036	1490.12964	-835.38367	327.25287	1412.63867	-826.29492	959.81464	1542.96130	-128.15799	1090.18201	1541.34729	-254.03668	1120.33838	1563.70654	-192.87753	387.59769	1523.05396	-884.11047	552.66650	1514.38696	-966.70087	511.65424	1524.42725	-1026.10876	671.12135	1032.13000	-396.69819	574.70606	1030.21148	-551.25606	633.92007	541.53604	-329.75726	491.42171	556.90286	-537.13193	643.96542	127.72895	-322.69061	476.00781	126.08606	-559.44260	669.65649	1556.45471	-319.15707	490.45380	1551.10718	-570.10715	880.28714	1462.30841	-84.20469	317.43661	1451.38416	-830.83929	
